<svg width="57" height="57" viewBox="0 0 57 57" fill="none" xmlns="http://www.w3.org/2000/svg">
<path d="M28.5 3.5625C14.7287 3.5625 3.5625 14.7287 3.5625 28.5C3.5625 42.2713 14.7287 53.4375 28.5 53.4375C42.2713 53.4375 53.4375 42.2713 53.4375 28.5C53.4375 14.7287 42.2713 3.5625 28.5 3.5625ZM39.1875 29.8359C39.1875 30.0809 38.9871 30.2812 38.7422 30.2812H30.2812V38.7422C30.2812 38.9871 30.0809 39.1875 29.8359 39.1875H27.1641C26.9191 39.1875 26.7188 38.9871 26.7188 38.7422V30.2812H18.2578C18.0129 30.2812 17.8125 30.0809 17.8125 29.8359V27.1641C17.8125 26.9191 18.0129 26.7188 18.2578 26.7188H26.7188V18.2578C26.7188 18.0129 26.9191 17.8125 27.1641 17.8125H29.8359C30.0809 17.8125 30.2812 18.0129 30.2812 18.2578V26.7188H38.7422C38.9871 26.7188 39.1875 26.9191 39.1875 27.1641V29.8359Z" fill="white"/>
</svg>
