<svg width="25" height="25" viewBox="0 0 25 25" fill="none" xmlns="http://www.w3.org/2000/svg">
<circle cx="12.5" cy="12.5" r="12.5" fill="#0097DD"/>
<path d="M14.69 8.10001H10.3103C10.3103 8.10001 9.76252 8.10001 9.76252 8.65001H15.2378C15.2378 8.10001 14.69 8.10001 14.69 8.10001ZM16.3328 9.75001C16.3328 9.20001 15.7856 9.20001 15.7856 9.20001H9.21527C9.21527 9.20001 8.66802 9.20001 8.66802 9.75001V10.3H16.3328V9.75001ZM17.4273 10.3L17.1039 9.97441V10.85H7.89692V9.97441L7.57297 10.3C7.24902 10.6256 7.01692 10.7125 7.14727 11.4C7.27707 12.0853 7.90572 15.8418 7.99922 16.35C8.10152 16.9077 8.66857 16.9 8.66857 16.9H16.3334C16.3334 16.9 16.8999 16.9077 17.0027 16.35C17.0962 15.8418 17.7243 12.0853 17.8547 11.4C17.9839 10.7125 17.7518 10.6256 17.4273 10.3ZM14.7004 13.5984C14.7004 13.9031 14.4535 14.15 14.1488 14.15H10.8521C10.7058 14.15 10.5654 14.0919 10.462 13.9884C10.3585 13.885 10.3004 13.7447 10.3004 13.5984V12.5H10.8504V13.6H14.1504V12.5H14.7004V13.5984Z" fill="white"/>
</svg>
