<svg width="35" height="35" viewBox="0 0 35 35" fill="none" xmlns="http://www.w3.org/2000/svg">
<circle cx="17.5" cy="17.5" r="17.5" fill="#5380D7"/>
<path d="M22.3133 10.907H14.2523C14.1862 10.907 14.132 10.9611 14.132 11.0273V11.8695C14.132 11.9357 14.1862 11.9898 14.2523 11.9898H21.7117V22.3367C21.7117 22.4028 21.7659 22.457 21.832 22.457H22.6742C22.7404 22.457 22.7945 22.4028 22.7945 22.3367V11.3882C22.7945 11.122 22.5795 10.907 22.3133 10.907ZM20.3883 12.832H12.6883C12.4221 12.832 12.207 13.047 12.207 13.3132V21.2945C12.207 21.4223 12.2582 21.5441 12.3484 21.6343L14.9547 24.2406C14.9878 24.2737 15.0254 24.3008 15.066 24.3233V24.3519H15.1291C15.1818 24.3715 15.2374 24.382 15.2946 24.382H20.3883C20.6545 24.382 20.8695 24.1669 20.8695 23.9007V13.3132C20.8695 13.047 20.6545 12.832 20.3883 12.832ZM15.0645 22.8209L13.7696 21.5246H15.0645V22.8209ZM19.7867 23.2992H16.027V21.1636C16.027 20.8313 15.7578 20.5621 15.4254 20.5621H13.2898V13.9148H19.7867V23.2992Z" fill="white"/>
</svg>
