<svg width="25" height="25" viewBox="0 0 25 25" fill="none" xmlns="http://www.w3.org/2000/svg">
<circle cx="12.5" cy="12.5" r="12.5" fill="#47B777"/>
<g clip-path="url(#clip0)">
<path d="M15.6828 13.5866L16.2939 12.9755C16.3894 12.88 16.5556 12.9469 16.5556 13.0844V15.8611C16.5556 16.3672 16.145 16.7778 15.6389 16.7778H8.91667C8.41059 16.7778 8 16.3672 8 15.8611V9.13889C8 8.63281 8.41059 8.22222 8.91667 8.22222H14.1398C14.2753 8.22222 14.3441 8.38646 14.2486 8.48385L13.6375 9.09496C13.6089 9.12361 13.5707 9.13889 13.5286 9.13889H8.91667V15.8611H15.6389V13.6936C15.6389 13.6535 15.6542 13.6153 15.6828 13.5866ZM18.6734 9.73281L13.6585 14.7477L11.9321 14.9387C11.4318 14.9941 11.0059 14.572 11.0613 14.0679L11.2523 12.3415L16.2672 7.32656C16.7045 6.88923 17.4111 6.88923 17.8465 7.32656L18.6715 8.15156C19.1089 8.58889 19.1089 9.29739 18.6734 9.73281V9.73281ZM16.7866 10.3229L15.6771 9.21337L12.1288 12.7635L11.9894 14.0106L13.2365 13.8712L16.7866 10.3229ZM18.0241 8.80087L17.1991 7.97587C17.1208 7.89757 16.9929 7.89757 16.9165 7.97587L16.3264 8.56597L17.4359 9.67552L18.026 9.08541C18.1024 9.00521 18.1024 8.87916 18.0241 8.80087V8.80087Z" fill="white"/>
</g>
<defs>
<clipPath id="clip0">
<rect width="11" height="9.77778" fill="white" transform="translate(8 7)"/>
</clipPath>
</defs>
</svg>
