<?xml version="1.0" encoding="iso-8859-1"?>
<!-- Generator: Adobe Illustrator 19.0.0, SVG Export Plug-In . SVG Version: 6.00 Build 0)  -->
<svg version="1.1" id="Capa_1" xmlns="http://www.w3.org/2000/svg" xmlns:xlink="http://www.w3.org/1999/xlink" x="0px" y="0px"
	 viewBox="0 0 511.999 511.999" style="enable-background:new 0 0 511.999 511.999;" xml:space="preserve">
<g>
	<g>
		<g>
			<path d="M491.865,396.814h-54.974V341.84c0-11.041-8.95-19.99-19.99-19.99c-11.041,0-19.991,8.95-19.991,19.99v54.974h-54.974
				c-11.041,0-19.99,8.95-19.99,19.99c0,11.041,8.95,19.991,19.99,19.991h54.974v54.974c0,11.041,8.95,19.991,19.991,19.991
				c11.041,0,19.99-8.95,19.99-19.991v-54.974h54.974c11.041,0,19.99-8.95,19.99-19.991S502.906,396.814,491.865,396.814z"/>
			<path d="M393.939,197.547l7.269,71.355c1.119,10.984,10.921,18.983,21.915,17.862c10.983-1.119,18.98-10.93,17.862-21.914
				l-8.516-83.597c52.06-27.796,79.419-70.769,79.387-125.277v-1c0-30.313-24.66-54.974-54.876-54.974
				c-1.034-0.027-26.679,0-55.917,11.342c-34.505,13.384-60.201,36.897-75.12,68.487l-87.334-8.877
				c-24.031-2.438-47.606,5.96-64.636,23.02L23.471,243.91c-31.112,31.164-31.101,81.861,0.024,113.012l131.287,131.394
				c15.768,15.782,36.455,23.685,57.075,23.684c20.312-0.001,40.564-7.675,55.967-23.043l21.197-20.953
				c7.851-7.761,7.926-20.418,0.164-28.271c-7.76-7.851-20.418-7.925-28.27-0.164l-21.235,20.99
				c-0.025,0.025-0.051,0.05-0.076,0.076c-15.443,15.428-40.808,15.168-56.539-0.579L51.779,328.662
				c-15.563-15.576-15.569-40.924-0.051-56.467L202.228,122.26c8.534-8.549,20.326-12.747,32.338-11.53l152.106,15.46l3.102,30.464
				c-35.462,13.167-69.069,15.247-69.893,15.295c-11.018,0.588-19.478,9.992-18.898,21.012c0.562,10.668,9.388,18.941,19.947,18.941
				c0.354,0,0.71-0.009,1.066-0.028C323.602,211.79,356.267,209.929,393.939,197.547z M369.29,84.237
				c10.582-15.617,25.656-27.396,45.055-35.155c22.334-8.934,42.319-9.099,42.538-9.1c8.267,0,14.993,6.726,14.993,14.993v1.013
				h-0.001c0.02,33.908-14.72,61.141-43.887,81.279l-3.192-31.342c-0.963-9.44-8.427-16.903-17.867-17.863L369.29,84.237z"/>
		</g>
	</g>
</g>
<g>
</g>
<g>
</g>
<g>
</g>
<g>
</g>
<g>
</g>
<g>
</g>
<g>
</g>
<g>
</g>
<g>
</g>
<g>
</g>
<g>
</g>
<g>
</g>
<g>
</g>
<g>
</g>
<g>
</g>
</svg>
