<svg width="286" height="30" viewBox="0 0 286 30" fill="none" xmlns="http://www.w3.org/2000/svg">
<path d="M33.9463 28C31.3402 28 28.9776 27.4494 26.8587 26.3481C24.764 25.2228 23.1078 23.6786 21.89 21.7155C20.6965 19.7284 20.0998 17.4899 20.0998 15C20.0998 12.5101 20.6965 10.2836 21.89 8.32044C23.1078 6.33333 24.764 4.78913 26.8587 3.68784C28.9776 2.56261 31.3524 2 33.9829 2C36.1993 2 38.1965 2.38306 39.9745 3.14917C41.7769 3.91529 43.2869 5.01657 44.5047 6.45304L40.7052 9.90055C38.9759 7.93738 36.8325 6.9558 34.2751 6.9558C32.692 6.9558 31.2793 7.30295 30.0371 7.99724C28.795 8.66759 27.8207 9.61326 27.1144 10.8343C26.4324 12.0552 26.0914 13.4438 26.0914 15C26.0914 16.5562 26.4324 17.9447 27.1144 19.1657C27.8207 20.3867 28.795 21.3444 30.0371 22.0387C31.2793 22.709 32.692 23.0442 34.2751 23.0442C36.8325 23.0442 38.9759 22.0506 40.7052 20.0635L44.5047 23.511C43.2869 24.9715 41.7769 26.0847 39.9745 26.8508C38.1721 27.6169 36.1627 28 33.9463 28Z" fill="white"/>
<path d="M48.3623 2.43094H54.2443V18.8066L66.4468 2.43094H72V27.5691H66.1545V11.2293L53.952 27.5691H48.3623V2.43094Z" fill="white"/>
<path d="M39.7964 14.7435C39.7964 17.5768 37.4597 19.8737 34.5772 19.8737C31.6947 19.8737 29.358 17.5768 29.358 14.7435C29.358 11.9101 31.6947 9.61326 34.5772 9.61326C37.4597 9.61326 39.7964 11.9101 39.7964 14.7435Z" fill="white"/>
<path d="M6.52399 14.7435C6.52399 13.3268 7.67243 12.1784 9.08911 12.1784H13.7449C15.1615 12.1784 16.31 13.3268 16.31 14.7435C16.31 16.1602 15.1615 17.3086 13.7449 17.3086H9.08911C7.67244 17.3086 6.52399 16.1602 6.52399 14.7435Z" fill="white"/>
<path d="M0 4.99605C0 3.57938 1.14844 2.43094 2.56511 2.43094H13.7449C15.1615 2.43094 16.31 3.57938 16.31 4.99605C16.31 6.41273 15.1615 7.56117 13.7449 7.56117H2.56511C1.14844 7.56117 0 6.41273 0 4.99605Z" fill="white"/>
<path d="M10.4384 25.0039C10.4384 23.5873 11.5868 22.4388 13.0035 22.4388H13.7449C15.1615 22.4388 16.31 23.5873 16.31 25.0039C16.31 26.4206 15.1615 27.5691 13.7449 27.5691H13.0035C11.5868 27.5691 10.4384 26.4206 10.4384 25.0039Z" fill="white"/>
<path d="M92.17 8.276C92.198 9.06933 92.436 9.704 92.884 10.18C93.3413 10.6467 93.976 10.88 94.788 10.88C95.6093 10.88 96.216 10.7027 96.608 10.348C97 9.99333 97.2613 9.536 97.392 8.976C97.4107 8.88267 97.4527 8.808 97.518 8.752C97.5927 8.696 97.672 8.668 97.756 8.668H98.4C98.484 8.668 98.554 8.70067 98.61 8.766C98.6753 8.822 98.708 8.892 98.708 8.976C98.6893 9.43333 98.54 9.90933 98.26 10.404C97.98 10.8893 97.546 11.3 96.958 11.636C96.3793 11.972 95.656 12.14 94.788 12.14C94.004 12.14 93.318 11.9767 92.73 11.65C92.142 11.3233 91.6847 10.8753 91.358 10.306C91.0407 9.72733 90.868 9.074 90.84 8.346C90.8307 8.066 90.826 7.65067 90.826 7.1C90.826 6.54933 90.8307 6.134 90.84 5.854C90.868 5.126 91.0407 4.47733 91.358 3.908C91.6847 3.32933 92.142 2.87667 92.73 2.55C93.318 2.22333 94.004 2.06 94.788 2.06C95.656 2.06 96.3793 2.228 96.958 2.564C97.546 2.9 97.98 3.31533 98.26 3.81C98.54 4.29533 98.6893 4.76667 98.708 5.224C98.708 5.308 98.6753 5.38267 98.61 5.448C98.554 5.504 98.484 5.532 98.4 5.532H97.756C97.672 5.532 97.5927 5.504 97.518 5.448C97.4527 5.392 97.4107 5.31733 97.392 5.224C97.2613 4.664 97 4.20667 96.608 3.852C96.216 3.49733 95.6093 3.32 94.788 3.32C93.976 3.32 93.3413 3.558 92.884 4.034C92.436 4.50067 92.198 5.13067 92.17 5.924C92.1607 6.204 92.156 6.596 92.156 7.1C92.156 7.604 92.1607 7.996 92.17 8.276ZM100.388 5C100.388 4.92533 100.416 4.86 100.472 4.804C100.528 4.748 100.593 4.72 100.668 4.72H104.14C104.933 4.72 105.554 4.89733 106.002 5.252C106.459 5.60667 106.688 6.078 106.688 6.666C106.688 7.04867 106.613 7.35667 106.464 7.59C106.315 7.814 106.109 8.024 105.848 8.22C106.212 8.42533 106.469 8.668 106.618 8.948C106.767 9.21867 106.842 9.54533 106.842 9.928C106.842 10.5813 106.613 11.09 106.156 11.454C105.699 11.818 105.078 12 104.294 12H100.668C100.593 12 100.528 11.972 100.472 11.916C100.416 11.86 100.388 11.7947 100.388 11.72V5ZM101.662 7.716H103.958C104.443 7.716 104.807 7.65067 105.05 7.52C105.293 7.38 105.414 7.142 105.414 6.806C105.414 6.47 105.288 6.24133 105.036 6.12C104.784 5.99867 104.401 5.938 103.888 5.938H101.662V7.716ZM101.662 10.782H104.028C105.055 10.782 105.568 10.4693 105.568 9.844C105.568 9.508 105.442 9.27467 105.19 9.144C104.938 9.004 104.565 8.934 104.07 8.934H101.662V10.782ZM114.823 7.702C114.841 7.90733 114.851 8.13133 114.851 8.374C114.851 8.598 114.841 8.81267 114.823 9.018C114.739 9.97 114.407 10.7307 113.829 11.3C113.259 11.86 112.485 12.14 111.505 12.14C110.525 12.14 109.745 11.86 109.167 11.3C108.597 10.7307 108.271 9.97 108.187 9.018C108.177 8.91533 108.173 8.70067 108.173 8.374C108.173 8.02867 108.177 7.80467 108.187 7.702C108.261 6.75 108.588 5.994 109.167 5.434C109.745 4.86467 110.525 4.58 111.505 4.58C112.485 4.58 113.264 4.86467 113.843 5.434C114.421 5.994 114.748 6.75 114.823 7.702ZM113.549 7.772C113.493 7.17467 113.292 6.694 112.947 6.33C112.611 5.966 112.13 5.784 111.505 5.784C110.879 5.784 110.394 5.966 110.049 6.33C109.713 6.694 109.517 7.17467 109.461 7.772C109.451 7.884 109.447 8.08467 109.447 8.374C109.447 8.654 109.451 8.84533 109.461 8.948C109.517 9.54533 109.713 10.026 110.049 10.39C110.394 10.754 110.879 10.936 111.505 10.936C112.13 10.936 112.611 10.754 112.947 10.39C113.292 10.026 113.493 9.54533 113.549 8.948C113.567 8.74267 113.577 8.55133 113.577 8.374C113.577 8.19667 113.567 7.996 113.549 7.772ZM117.247 5.098C117.247 4.99533 117.279 4.90667 117.345 4.832C117.419 4.75733 117.508 4.72 117.611 4.72H121.517C121.619 4.72 121.708 4.75733 121.783 4.832C121.857 4.90667 121.895 4.99533 121.895 5.098V10.796H122.161C122.263 10.796 122.352 10.8333 122.427 10.908C122.501 10.9827 122.539 11.0713 122.539 11.174V13.162C122.539 13.2647 122.501 13.3533 122.427 13.428C122.352 13.5027 122.263 13.54 122.161 13.54H121.643C121.54 13.54 121.451 13.5027 121.377 13.428C121.302 13.3533 121.265 13.2647 121.265 13.162V12H117.121V13.162C117.121 13.2647 117.083 13.3533 117.009 13.428C116.934 13.5027 116.845 13.54 116.743 13.54H116.225C116.122 13.54 116.033 13.5027 115.959 13.428C115.884 13.3533 115.847 13.2647 115.847 13.162V11.174C115.847 11.0713 115.884 10.9827 115.959 10.908C116.033 10.8333 116.122 10.796 116.225 10.796H116.547C116.827 10.796 117.013 10.6747 117.107 10.432C117.2 10.1893 117.247 9.84867 117.247 9.41V5.098ZM118.521 5.924V9.634C118.521 10.1473 118.432 10.5347 118.255 10.796H120.621V5.924H118.521ZM130.363 4.72C130.466 4.72 130.555 4.75733 130.629 4.832C130.704 4.90667 130.741 4.99533 130.741 5.098V11.622C130.741 11.7247 130.704 11.8133 130.629 11.888C130.555 11.9627 130.466 12 130.363 12H129.845C129.743 12 129.654 11.9627 129.579 11.888C129.505 11.8133 129.467 11.7247 129.467 11.622V8.892H125.519V11.622C125.519 11.7247 125.482 11.8133 125.407 11.888C125.333 11.9627 125.244 12 125.141 12H124.623C124.521 12 124.432 11.9673 124.357 11.902C124.283 11.8273 124.245 11.734 124.245 11.622V5.098C124.245 4.99533 124.283 4.90667 124.357 4.832C124.432 4.75733 124.521 4.72 124.623 4.72H125.141C125.244 4.72 125.333 4.75733 125.407 4.832C125.482 4.90667 125.519 4.99533 125.519 5.098V7.688H129.467V5.098C129.467 4.99533 129.505 4.90667 129.579 4.832C129.654 4.75733 129.743 4.72 129.845 4.72H130.363ZM137.171 7.394V7.212C137.171 6.75467 137.017 6.40467 136.709 6.162C136.41 5.91 136.018 5.784 135.533 5.784C135.16 5.784 134.866 5.84933 134.651 5.98C134.446 6.10133 134.25 6.288 134.063 6.54C134.007 6.61467 133.946 6.666 133.881 6.694C133.816 6.722 133.727 6.736 133.615 6.736H133.195C133.092 6.736 132.999 6.69867 132.915 6.624C132.84 6.54933 132.808 6.46067 132.817 6.358C132.845 6.078 132.98 5.80267 133.223 5.532C133.475 5.252 133.806 5.02333 134.217 4.846C134.628 4.66867 135.066 4.58 135.533 4.58C136.401 4.58 137.101 4.82267 137.633 5.308C138.174 5.79333 138.445 6.47467 138.445 7.352V11.622C138.445 11.7247 138.408 11.8133 138.333 11.888C138.258 11.9627 138.17 12 138.067 12H137.549C137.446 12 137.358 11.9627 137.283 11.888C137.208 11.8133 137.171 11.7247 137.171 11.622V11.048C137.022 11.384 136.704 11.65 136.219 11.846C135.734 12.042 135.248 12.14 134.763 12.14C134.287 12.14 133.862 12.056 133.489 11.888C133.116 11.7107 132.826 11.4727 132.621 11.174C132.425 10.8753 132.327 10.5393 132.327 10.166C132.327 9.466 132.588 8.92 133.111 8.528C133.634 8.12667 134.329 7.856 135.197 7.716L137.171 7.394ZM137.171 8.514L135.519 8.78C134.912 8.87333 134.441 9.02733 134.105 9.242C133.769 9.44733 133.601 9.70867 133.601 10.026C133.601 10.2593 133.708 10.4693 133.923 10.656C134.138 10.8427 134.464 10.936 134.903 10.936C135.575 10.936 136.121 10.7447 136.541 10.362C136.961 9.97933 137.171 9.48 137.171 8.864V8.514ZM145.822 4.72C145.924 4.72 146.013 4.75733 146.088 4.832C146.162 4.90667 146.2 4.99533 146.2 5.098V11.622C146.2 11.7247 146.162 11.8133 146.088 11.888C146.013 11.9627 145.924 12 145.822 12H145.304C145.201 12 145.112 11.9627 145.038 11.888C144.963 11.8133 144.926 11.7247 144.926 11.622V9.634H143.204L141.538 11.734C141.472 11.8087 141.407 11.874 141.342 11.93C141.276 11.9767 141.192 12 141.09 12H140.418C140.324 12 140.245 11.9673 140.18 11.902C140.114 11.8367 140.082 11.762 140.082 11.678C140.082 11.6033 140.1 11.538 140.138 11.482L141.762 9.452C140.735 9.116 140.222 8.36 140.222 7.184C140.222 6.372 140.469 5.76067 140.964 5.35C141.458 4.93 142.163 4.72 143.078 4.72H145.822ZM144.926 8.43V5.924H143.078C142.555 5.924 142.158 6.022 141.888 6.218C141.617 6.40467 141.482 6.72667 141.482 7.184C141.482 7.64133 141.612 7.96333 141.874 8.15C142.144 8.33667 142.546 8.43 143.078 8.43H144.926ZM154.652 10.936C155.585 10.936 156.215 10.572 156.542 9.844C156.607 9.704 156.673 9.606 156.738 9.55C156.803 9.494 156.892 9.466 157.004 9.466H157.424C157.527 9.466 157.615 9.50333 157.69 9.578C157.765 9.64333 157.802 9.72267 157.802 9.816C157.802 10.1333 157.676 10.474 157.424 10.838C157.172 11.202 156.808 11.51 156.332 11.762C155.856 12.014 155.296 12.14 154.652 12.14C153.989 12.14 153.415 12 152.93 11.72C152.445 11.44 152.071 11.0573 151.81 10.572C151.549 10.0773 151.404 9.52667 151.376 8.92C151.367 8.808 151.362 8.59333 151.362 8.276C151.362 8.052 151.367 7.89333 151.376 7.8C151.46 6.848 151.782 6.07333 152.342 5.476C152.902 4.87867 153.672 4.58 154.652 4.58C155.296 4.58 155.851 4.706 156.318 4.958C156.794 5.20067 157.153 5.504 157.396 5.868C157.648 6.22267 157.783 6.55867 157.802 6.876C157.811 6.97867 157.774 7.06733 157.69 7.142C157.615 7.21667 157.527 7.254 157.424 7.254H157.004C156.892 7.254 156.803 7.226 156.738 7.17C156.673 7.114 156.607 7.016 156.542 6.876C156.215 6.148 155.585 5.784 154.652 5.784C154.139 5.784 153.691 5.95667 153.308 6.302C152.925 6.64733 152.706 7.17 152.65 7.87C152.641 7.97267 152.636 8.14067 152.636 8.374C152.636 8.58867 152.641 8.74733 152.65 8.85C152.715 9.55 152.935 10.0727 153.308 10.418C153.691 10.7633 154.139 10.936 154.652 10.936ZM165.078 12C164.975 12 164.886 11.9627 164.812 11.888C164.737 11.8133 164.7 11.7247 164.7 11.622V6.932L160.626 11.846C160.551 11.9487 160.448 12 160.318 12H159.842C159.739 12 159.65 11.9627 159.576 11.888C159.51 11.8133 159.478 11.7247 159.478 11.622V5.098C159.478 4.99533 159.515 4.90667 159.59 4.832C159.664 4.75733 159.753 4.72 159.856 4.72H160.374C160.476 4.72 160.565 4.75733 160.64 4.832C160.714 4.90667 160.752 4.99533 160.752 5.098V9.83L164.826 4.874C164.872 4.818 164.914 4.78067 164.952 4.762C164.998 4.734 165.059 4.72 165.134 4.72H165.596C165.698 4.72 165.787 4.75733 165.862 4.832C165.936 4.90667 165.974 4.99533 165.974 5.098V11.622C165.974 11.7247 165.936 11.8133 165.862 11.888C165.787 11.9627 165.698 12 165.596 12H165.078ZM171.017 10.936C171.951 10.936 172.581 10.572 172.907 9.844C172.973 9.704 173.038 9.606 173.103 9.55C173.169 9.494 173.257 9.466 173.369 9.466H173.789C173.892 9.466 173.981 9.50333 174.055 9.578C174.13 9.64333 174.167 9.72267 174.167 9.816C174.167 10.1333 174.041 10.474 173.789 10.838C173.537 11.202 173.173 11.51 172.697 11.762C172.221 12.014 171.661 12.14 171.017 12.14C170.355 12.14 169.781 12 169.295 11.72C168.81 11.44 168.437 11.0573 168.175 10.572C167.914 10.0773 167.769 9.52667 167.741 8.92C167.732 8.808 167.727 8.59333 167.727 8.276C167.727 8.052 167.732 7.89333 167.741 7.8C167.825 6.848 168.147 6.07333 168.707 5.476C169.267 4.87867 170.037 4.58 171.017 4.58C171.661 4.58 172.217 4.706 172.683 4.958C173.159 5.20067 173.519 5.504 173.761 5.868C174.013 6.22267 174.149 6.55867 174.167 6.876C174.177 6.97867 174.139 7.06733 174.055 7.142C173.981 7.21667 173.892 7.254 173.789 7.254H173.369C173.257 7.254 173.169 7.226 173.103 7.17C173.038 7.114 172.973 7.016 172.907 6.876C172.581 6.148 171.951 5.784 171.017 5.784C170.504 5.784 170.056 5.95667 169.673 6.302C169.291 6.64733 169.071 7.17 169.015 7.87C169.006 7.97267 169.001 8.14067 169.001 8.374C169.001 8.58867 169.006 8.74733 169.015 8.85C169.081 9.55 169.3 10.0727 169.673 10.418C170.056 10.7633 170.504 10.936 171.017 10.936ZM181.335 4.72C181.438 4.72 181.526 4.75733 181.601 4.832C181.676 4.90667 181.713 4.99533 181.713 5.098V5.546C181.713 5.64867 181.676 5.73733 181.601 5.812C181.526 5.88667 181.438 5.924 181.335 5.924H178.913V11.622C178.913 11.7247 178.876 11.8133 178.801 11.888C178.726 11.9627 178.638 12 178.535 12H178.017C177.914 12 177.826 11.9627 177.751 11.888C177.676 11.8133 177.639 11.7247 177.639 11.622V5.924H175.217C175.114 5.924 175.026 5.88667 174.951 5.812C174.876 5.73733 174.839 5.64867 174.839 5.546V5.098C174.839 4.99533 174.876 4.90667 174.951 4.832C175.026 4.75733 175.114 4.72 175.217 4.72H181.335ZM185.85 4.58C186.848 4.58 187.637 4.89733 188.216 5.532C188.794 6.16667 189.084 7.03 189.084 8.122V8.5C189.084 8.60267 189.046 8.69133 188.972 8.766C188.897 8.84067 188.808 8.878 188.706 8.878H183.89V8.962C183.908 9.578 184.095 10.0633 184.45 10.418C184.814 10.7633 185.28 10.936 185.85 10.936C186.316 10.936 186.676 10.8753 186.928 10.754C187.189 10.6327 187.422 10.46 187.628 10.236C187.702 10.1613 187.768 10.11 187.824 10.082C187.889 10.054 187.973 10.04 188.076 10.04H188.496C188.608 10.04 188.701 10.0773 188.776 10.152C188.85 10.2267 188.883 10.3153 188.874 10.418C188.836 10.67 188.696 10.9313 188.454 11.202C188.22 11.4633 187.88 11.6873 187.432 11.874C186.993 12.0513 186.466 12.14 185.85 12.14C185.252 12.14 184.72 12.0047 184.254 11.734C183.787 11.454 183.414 11.0713 183.134 10.586C182.863 10.1007 182.7 9.55467 182.644 8.948C182.625 8.668 182.616 8.45333 182.616 8.304C182.616 8.15467 182.625 7.94 182.644 7.66C182.7 7.08133 182.863 6.55867 183.134 6.092C183.414 5.62533 183.782 5.25667 184.24 4.986C184.706 4.71533 185.243 4.58 185.85 4.58ZM187.824 7.702V7.66C187.824 7.09067 187.642 6.638 187.278 6.302C186.923 5.95667 186.447 5.784 185.85 5.784C185.308 5.784 184.846 5.95667 184.464 6.302C184.09 6.64733 183.899 7.1 183.89 7.66V7.702H187.824ZM196.583 5C196.62 4.92533 196.681 4.86 196.765 4.804C196.849 4.748 196.961 4.72 197.101 4.72H197.563C197.665 4.72 197.754 4.75733 197.829 4.832C197.903 4.90667 197.941 4.99533 197.941 5.098V11.622C197.941 11.7247 197.903 11.8133 197.829 11.888C197.754 11.9627 197.665 12 197.563 12H197.045C196.942 12 196.853 11.9627 196.779 11.888C196.704 11.8133 196.667 11.7247 196.667 11.622V7.408L195.015 10.46C194.903 10.6933 194.739 10.81 194.525 10.81H194.189C193.983 10.81 193.82 10.6933 193.699 10.46L192.047 7.408V11.622C192.047 11.7247 192.009 11.8133 191.935 11.888C191.86 11.9627 191.771 12 191.669 12H191.151C191.048 12 190.959 11.9627 190.885 11.888C190.81 11.8133 190.773 11.7247 190.773 11.622V5.098C190.773 4.99533 190.81 4.90667 190.885 4.832C190.959 4.75733 191.048 4.72 191.151 4.72H191.613C191.753 4.72 191.865 4.748 191.949 4.804C192.033 4.86 192.093 4.92533 192.131 5L194.357 9.2L196.583 5ZM204.368 7.394V7.212C204.368 6.75467 204.214 6.40467 203.906 6.162C203.608 5.91 203.216 5.784 202.73 5.784C202.357 5.784 202.063 5.84933 201.848 5.98C201.643 6.10133 201.447 6.288 201.26 6.54C201.204 6.61467 201.144 6.666 201.078 6.694C201.013 6.722 200.924 6.736 200.812 6.736H200.392C200.29 6.736 200.196 6.69867 200.112 6.624C200.038 6.54933 200.005 6.46067 200.014 6.358C200.042 6.078 200.178 5.80267 200.42 5.532C200.672 5.252 201.004 5.02333 201.414 4.846C201.825 4.66867 202.264 4.58 202.73 4.58C203.598 4.58 204.298 4.82267 204.83 5.308C205.372 5.79333 205.642 6.47467 205.642 7.352V11.622C205.642 11.7247 205.605 11.8133 205.53 11.888C205.456 11.9627 205.367 12 205.264 12H204.746C204.644 12 204.555 11.9627 204.48 11.888C204.406 11.8133 204.368 11.7247 204.368 11.622V11.048C204.219 11.384 203.902 11.65 203.416 11.846C202.931 12.042 202.446 12.14 201.96 12.14C201.484 12.14 201.06 12.056 200.686 11.888C200.313 11.7107 200.024 11.4727 199.818 11.174C199.622 10.8753 199.524 10.5393 199.524 10.166C199.524 9.466 199.786 8.92 200.308 8.528C200.831 8.12667 201.526 7.856 202.394 7.716L204.368 7.394ZM204.368 8.514L202.716 8.78C202.11 8.87333 201.638 9.02733 201.302 9.242C200.966 9.44733 200.798 9.70867 200.798 10.026C200.798 10.2593 200.906 10.4693 201.12 10.656C201.335 10.8427 201.662 10.936 202.1 10.936C202.772 10.936 203.318 10.7447 203.738 10.362C204.158 9.97933 204.368 9.48 204.368 8.864V8.514ZM214.043 10.936C214.976 10.936 215.606 10.572 215.933 9.844C215.998 9.704 216.063 9.606 216.129 9.55C216.194 9.494 216.283 9.466 216.395 9.466H216.815C216.917 9.466 217.006 9.50333 217.081 9.578C217.155 9.64333 217.193 9.72267 217.193 9.816C217.193 10.1333 217.067 10.474 216.815 10.838C216.563 11.202 216.199 11.51 215.723 11.762C215.247 12.014 214.687 12.14 214.043 12.14C213.38 12.14 212.806 12 212.321 11.72C211.835 11.44 211.462 11.0573 211.201 10.572C210.939 10.0773 210.795 9.52667 210.767 8.92C210.757 8.808 210.753 8.59333 210.753 8.276C210.753 8.052 210.757 7.89333 210.767 7.8C210.851 6.848 211.173 6.07333 211.733 5.476C212.293 4.87867 213.063 4.58 214.043 4.58C214.687 4.58 215.242 4.706 215.709 4.958C216.185 5.20067 216.544 5.504 216.787 5.868C217.039 6.22267 217.174 6.55867 217.193 6.876C217.202 6.97867 217.165 7.06733 217.081 7.142C217.006 7.21667 216.917 7.254 216.815 7.254H216.395C216.283 7.254 216.194 7.226 216.129 7.17C216.063 7.114 215.998 7.016 215.933 6.876C215.606 6.148 214.976 5.784 214.043 5.784C213.529 5.784 213.081 5.95667 212.699 6.302C212.316 6.64733 212.097 7.17 212.041 7.87C212.031 7.97267 212.027 8.14067 212.027 8.374C212.027 8.58867 212.031 8.74733 212.041 8.85C212.106 9.55 212.325 10.0727 212.699 10.418C213.081 10.7633 213.529 10.936 214.043 10.936ZM220.94 5.504C221.183 5.448 221.44 5.42 221.71 5.42C222.336 5.42 222.891 5.55533 223.376 5.826C223.862 6.08733 224.24 6.47467 224.51 6.988C224.781 7.492 224.916 8.08933 224.916 8.78C224.916 9.43333 224.776 10.0167 224.496 10.53C224.226 11.034 223.848 11.4307 223.362 11.72C222.877 12 222.326 12.14 221.71 12.14C221.094 12.14 220.544 12 220.058 11.72C219.573 11.4307 219.19 11.034 218.91 10.53C218.64 10.0167 218.504 9.43333 218.504 8.78C218.504 7.94933 218.616 7.226 218.84 6.61C219.074 5.98467 219.349 5.476 219.666 5.084C219.984 4.68267 220.376 4.258 220.842 3.81C221.225 3.43667 221.5 3.13333 221.668 2.9C221.846 2.66667 221.934 2.41933 221.934 2.158C221.934 2.05533 221.972 1.96667 222.046 1.892C222.121 1.81733 222.21 1.78 222.312 1.78H222.83C222.933 1.78 223.022 1.81733 223.096 1.892C223.171 1.96667 223.208 2.05533 223.208 2.158C223.208 2.56867 223.096 2.942 222.872 3.278C222.658 3.60467 222.317 4.01067 221.85 4.496C221.514 4.832 221.211 5.168 220.94 5.504ZM219.778 8.78C219.778 9.44267 219.942 9.97 220.268 10.362C220.595 10.7447 221.076 10.936 221.71 10.936C222.345 10.936 222.826 10.7447 223.152 10.362C223.479 9.97 223.642 9.44267 223.642 8.78C223.642 8.11733 223.479 7.59467 223.152 7.212C222.826 6.82 222.345 6.624 221.71 6.624C221.076 6.624 220.595 6.82 220.268 7.212C219.942 7.59467 219.778 8.11733 219.778 8.78ZM232.92 7.702C232.939 7.90733 232.948 8.13133 232.948 8.374C232.948 8.598 232.939 8.81267 232.92 9.018C232.836 9.97 232.505 10.7307 231.926 11.3C231.357 11.86 230.582 12.14 229.602 12.14C228.622 12.14 227.843 11.86 227.264 11.3C226.695 10.7307 226.368 9.97 226.284 9.018C226.275 8.91533 226.27 8.70067 226.27 8.374C226.27 8.02867 226.275 7.80467 226.284 7.702C226.359 6.75 226.686 5.994 227.264 5.434C227.843 4.86467 228.622 4.58 229.602 4.58C230.582 4.58 231.362 4.86467 231.94 5.434C232.519 5.994 232.846 6.75 232.92 7.702ZM231.646 7.772C231.59 7.17467 231.39 6.694 231.044 6.33C230.708 5.966 230.228 5.784 229.602 5.784C228.977 5.784 228.492 5.966 228.146 6.33C227.81 6.694 227.614 7.17467 227.558 7.772C227.549 7.884 227.544 8.08467 227.544 8.374C227.544 8.654 227.549 8.84533 227.558 8.948C227.614 9.54533 227.81 10.026 228.146 10.39C228.492 10.754 228.977 10.936 229.602 10.936C230.228 10.936 230.708 10.754 231.044 10.39C231.39 10.026 231.59 9.54533 231.646 8.948C231.665 8.74267 231.674 8.55133 231.674 8.374C231.674 8.19667 231.665 7.996 231.646 7.772ZM235.974 14.282C235.974 14.3847 235.937 14.4733 235.862 14.548C235.788 14.6227 235.699 14.66 235.596 14.66H235.078C234.976 14.66 234.887 14.6227 234.812 14.548C234.738 14.4733 234.7 14.3847 234.7 14.282V5.098C234.7 4.99533 234.738 4.90667 234.812 4.832C234.887 4.75733 234.976 4.72 235.078 4.72H235.596C235.699 4.72 235.788 4.75733 235.862 4.832C235.937 4.90667 235.974 4.99533 235.974 5.098V5.532C236.45 4.89733 237.174 4.58 238.144 4.58C238.723 4.58 239.246 4.71533 239.712 4.986C240.188 5.25667 240.566 5.644 240.846 6.148C241.136 6.652 241.294 7.24 241.322 7.912C241.332 8.00533 241.336 8.15467 241.336 8.36C241.336 8.57467 241.332 8.72867 241.322 8.822C241.294 9.494 241.136 10.082 240.846 10.586C240.566 11.0807 240.193 11.4633 239.726 11.734C239.26 12.0047 238.732 12.14 238.144 12.14C237.622 12.14 237.178 12.0513 236.814 11.874C236.46 11.6873 236.18 11.4587 235.974 11.188V14.282ZM235.974 8.864C236.002 9.51733 236.198 10.026 236.562 10.39C236.926 10.754 237.407 10.936 238.004 10.936C238.611 10.936 239.092 10.74 239.446 10.348C239.81 9.956 240.011 9.424 240.048 8.752C240.058 8.65867 240.062 8.528 240.062 8.36C240.062 8.192 240.058 8.06133 240.048 7.968C240.011 7.296 239.81 6.764 239.446 6.372C239.092 5.98 238.611 5.784 238.004 5.784C237.426 5.784 236.95 5.966 236.576 6.33C236.203 6.68467 236.002 7.16067 235.974 7.758L235.96 8.304L235.974 8.864ZM247.394 7.394V7.212C247.394 6.75467 247.24 6.40467 246.932 6.162C246.633 5.91 246.241 5.784 245.756 5.784C245.382 5.784 245.088 5.84933 244.874 5.98C244.668 6.10133 244.472 6.288 244.286 6.54C244.23 6.61467 244.169 6.666 244.104 6.694C244.038 6.722 243.95 6.736 243.838 6.736H243.418C243.315 6.736 243.222 6.69867 243.138 6.624C243.063 6.54933 243.03 6.46067 243.04 6.358C243.068 6.078 243.203 5.80267 243.446 5.532C243.698 5.252 244.029 5.02333 244.44 4.846C244.85 4.66867 245.289 4.58 245.756 4.58C246.624 4.58 247.324 4.82267 247.856 5.308C248.397 5.79333 248.668 6.47467 248.668 7.352V11.622C248.668 11.7247 248.63 11.8133 248.556 11.888C248.481 11.9627 248.392 12 248.29 12H247.772C247.669 12 247.58 11.9627 247.506 11.888C247.431 11.8133 247.394 11.7247 247.394 11.622V11.048C247.244 11.384 246.927 11.65 246.442 11.846C245.956 12.042 245.471 12.14 244.986 12.14C244.51 12.14 244.085 12.056 243.712 11.888C243.338 11.7107 243.049 11.4727 242.844 11.174C242.648 10.8753 242.55 10.5393 242.55 10.166C242.55 9.466 242.811 8.92 243.334 8.528C243.856 8.12667 244.552 7.856 245.42 7.716L247.394 7.394ZM247.394 8.514L245.742 8.78C245.135 8.87333 244.664 9.02733 244.328 9.242C243.992 9.44733 243.824 9.70867 243.824 10.026C243.824 10.2593 243.931 10.4693 244.146 10.656C244.36 10.8427 244.687 10.936 245.126 10.936C245.798 10.936 246.344 10.7447 246.764 10.362C247.184 9.97933 247.394 9.48 247.394 8.864V8.514ZM96.65 27C96.5473 27 96.4587 26.9627 96.384 26.888C96.3093 26.8133 96.272 26.7247 96.272 26.622V21.932L92.198 26.846C92.1233 26.9487 92.0207 27 91.89 27H91.414C91.3113 27 91.2227 26.9627 91.148 26.888C91.0827 26.8133 91.05 26.7247 91.05 26.622V20.098C91.05 19.9953 91.0873 19.9067 91.162 19.832C91.2367 19.7573 91.3253 19.72 91.428 19.72H91.946C92.0487 19.72 92.1373 19.7573 92.212 19.832C92.2867 19.9067 92.324 19.9953 92.324 20.098V24.83L96.398 19.874C96.4447 19.818 96.4867 19.7807 96.524 19.762C96.5707 19.734 96.6313 19.72 96.706 19.72H97.168C97.2707 19.72 97.3593 19.7573 97.434 19.832C97.5087 19.9067 97.546 19.9953 97.546 20.098V26.622C97.546 26.7247 97.5087 26.8133 97.434 26.888C97.3593 26.9627 97.2707 27 97.168 27H96.65ZM105.768 19.72C105.87 19.72 105.959 19.7573 106.034 19.832C106.108 19.9067 106.146 19.9953 106.146 20.098V26.622C106.146 26.7247 106.108 26.8133 106.034 26.888C105.959 26.9627 105.87 27 105.768 27H105.25C105.147 27 105.058 26.9627 104.984 26.888C104.909 26.8133 104.872 26.7247 104.872 26.622V23.892H100.924V26.622C100.924 26.7247 100.886 26.8133 100.812 26.888C100.737 26.9627 100.648 27 100.546 27H100.028C99.9249 27 99.8363 26.9673 99.7616 26.902C99.6869 26.8273 99.6496 26.734 99.6496 26.622V20.098C99.6496 19.9953 99.6869 19.9067 99.7616 19.832C99.8363 19.7573 99.9249 19.72 100.028 19.72H100.546C100.648 19.72 100.737 19.7573 100.812 19.832C100.886 19.9067 100.924 19.9953 100.924 20.098V22.688H104.872V20.098C104.872 19.9953 104.909 19.9067 104.984 19.832C105.058 19.7573 105.147 19.72 105.25 19.72H105.768ZM107.899 23.36L107.913 22.912C107.941 22.2307 108.086 21.6427 108.347 21.148C108.609 20.644 108.954 20.2567 109.383 19.986C109.822 19.7153 110.321 19.58 110.881 19.58C111.367 19.58 111.759 19.664 112.057 19.832C112.356 20 112.617 20.2333 112.841 20.532V17.508C112.841 17.4053 112.879 17.3167 112.953 17.242C113.028 17.1673 113.117 17.13 113.219 17.13H113.751C113.854 17.13 113.943 17.1673 114.017 17.242C114.092 17.3167 114.129 17.4053 114.129 17.508V20.532C114.353 20.2333 114.615 20 114.913 19.832C115.212 19.664 115.604 19.58 116.089 19.58C116.649 19.58 117.144 19.7153 117.573 19.986C118.012 20.2567 118.362 20.644 118.623 21.148C118.885 21.6427 119.029 22.2307 119.057 22.912C119.067 23.0053 119.071 23.1547 119.071 23.36C119.071 23.5747 119.067 23.7287 119.057 23.822C119.029 24.494 118.885 25.082 118.623 25.586C118.362 26.09 118.012 26.4773 117.573 26.748C117.144 27.0093 116.649 27.14 116.089 27.14C115.604 27.14 115.207 27.056 114.899 26.888C114.601 26.7107 114.344 26.4773 114.129 26.188V29.282C114.129 29.3847 114.092 29.4733 114.017 29.548C113.943 29.6227 113.854 29.66 113.751 29.66H113.219C113.117 29.66 113.028 29.6227 112.953 29.548C112.879 29.4733 112.841 29.3847 112.841 29.282V26.188C112.627 26.4773 112.365 26.7107 112.057 26.888C111.759 27.056 111.367 27.14 110.881 27.14C110.321 27.14 109.822 27.0093 109.383 26.748C108.954 26.4773 108.609 26.09 108.347 25.586C108.086 25.082 107.941 24.494 107.913 23.822L107.899 23.36ZM111.021 20.784C110.461 20.784 110.023 20.9753 109.705 21.358C109.397 21.7407 109.225 22.2773 109.187 22.968L109.173 23.36C109.173 25.0773 109.789 25.936 111.021 25.936C111.544 25.936 111.969 25.754 112.295 25.39C112.631 25.026 112.813 24.5173 112.841 23.864C112.851 23.7707 112.855 23.584 112.855 23.304C112.855 23.0333 112.851 22.8513 112.841 22.758C112.813 22.1513 112.636 21.6707 112.309 21.316C111.983 20.9613 111.553 20.784 111.021 20.784ZM114.129 23.864C114.157 24.5173 114.335 25.026 114.661 25.39C114.997 25.754 115.427 25.936 115.949 25.936C117.097 25.936 117.709 25.208 117.783 23.752C117.793 23.6587 117.797 23.528 117.797 23.36C117.797 22.548 117.643 21.918 117.335 21.47C117.027 21.0127 116.565 20.784 115.949 20.784C115.417 20.784 114.988 20.9613 114.661 21.316C114.335 21.6707 114.157 22.1513 114.129 22.758L114.115 23.304L114.129 23.864ZM127.127 22.702C127.146 22.9073 127.155 23.1313 127.155 23.374C127.155 23.598 127.146 23.8127 127.127 24.018C127.043 24.97 126.712 25.7307 126.133 26.3C125.564 26.86 124.789 27.14 123.809 27.14C122.829 27.14 122.05 26.86 121.471 26.3C120.902 25.7307 120.575 24.97 120.491 24.018C120.482 23.9153 120.477 23.7007 120.477 23.374C120.477 23.0287 120.482 22.8047 120.491 22.702C120.566 21.75 120.893 20.994 121.471 20.434C122.05 19.8647 122.829 19.58 123.809 19.58C124.789 19.58 125.569 19.8647 126.147 20.434C126.726 20.994 127.053 21.75 127.127 22.702ZM125.853 22.772C125.797 22.1747 125.597 21.694 125.251 21.33C124.915 20.966 124.435 20.784 123.809 20.784C123.184 20.784 122.699 20.966 122.353 21.33C122.017 21.694 121.821 22.1747 121.765 22.772C121.756 22.884 121.751 23.0847 121.751 23.374C121.751 23.654 121.756 23.8453 121.765 23.948C121.821 24.5453 122.017 25.026 122.353 25.39C122.699 25.754 123.184 25.936 123.809 25.936C124.435 25.936 124.915 25.754 125.251 25.39C125.597 25.026 125.797 24.5453 125.853 23.948C125.872 23.7427 125.881 23.5513 125.881 23.374C125.881 23.1967 125.872 22.996 125.853 22.772ZM130.181 29.282C130.181 29.3847 130.144 29.4733 130.069 29.548C129.995 29.6227 129.906 29.66 129.803 29.66H129.285C129.183 29.66 129.094 29.6227 129.019 29.548C128.945 29.4733 128.907 29.3847 128.907 29.282V20.098C128.907 19.9953 128.945 19.9067 129.019 19.832C129.094 19.7573 129.183 19.72 129.285 19.72H129.803C129.906 19.72 129.995 19.7573 130.069 19.832C130.144 19.9067 130.181 19.9953 130.181 20.098V20.532C130.657 19.8973 131.381 19.58 132.351 19.58C132.93 19.58 133.453 19.7153 133.919 19.986C134.395 20.2567 134.773 20.644 135.053 21.148C135.343 21.652 135.501 22.24 135.529 22.912C135.539 23.0053 135.543 23.1547 135.543 23.36C135.543 23.5747 135.539 23.7287 135.529 23.822C135.501 24.494 135.343 25.082 135.053 25.586C134.773 26.0807 134.4 26.4633 133.933 26.734C133.467 27.0047 132.939 27.14 132.351 27.14C131.829 27.14 131.385 27.0513 131.021 26.874C130.667 26.6873 130.387 26.4587 130.181 26.188V29.282ZM130.181 23.864C130.209 24.5173 130.405 25.026 130.769 25.39C131.133 25.754 131.614 25.936 132.211 25.936C132.818 25.936 133.299 25.74 133.653 25.348C134.017 24.956 134.218 24.424 134.255 23.752C134.265 23.6587 134.269 23.528 134.269 23.36C134.269 23.192 134.265 23.0613 134.255 22.968C134.218 22.296 134.017 21.764 133.653 21.372C133.299 20.98 132.818 20.784 132.211 20.784C131.633 20.784 131.157 20.966 130.783 21.33C130.41 21.6847 130.209 22.1607 130.181 22.758L130.167 23.304L130.181 23.864ZM143.085 20C143.122 19.9253 143.183 19.86 143.267 19.804C143.351 19.748 143.463 19.72 143.603 19.72H144.065C144.167 19.72 144.256 19.7573 144.331 19.832C144.405 19.9067 144.443 19.9953 144.443 20.098V26.622C144.443 26.7247 144.405 26.8133 144.331 26.888C144.256 26.9627 144.167 27 144.065 27H143.547C143.444 27 143.355 26.9627 143.281 26.888C143.206 26.8133 143.169 26.7247 143.169 26.622V22.408L141.517 25.46C141.405 25.6933 141.241 25.81 141.027 25.81H140.691C140.485 25.81 140.322 25.6933 140.201 25.46L138.549 22.408V26.622C138.549 26.7247 138.511 26.8133 138.437 26.888C138.362 26.9627 138.273 27 138.171 27H137.653C137.55 27 137.461 26.9627 137.387 26.888C137.312 26.8133 137.275 26.7247 137.275 26.622V20.098C137.275 19.9953 137.312 19.9067 137.387 19.832C137.461 19.7573 137.55 19.72 137.653 19.72H138.115C138.255 19.72 138.367 19.748 138.451 19.804C138.535 19.86 138.595 19.9253 138.633 20L140.859 24.2L143.085 20ZM150.87 22.394V22.212C150.87 21.7547 150.716 21.4047 150.408 21.162C150.109 20.91 149.717 20.784 149.232 20.784C148.859 20.784 148.565 20.8493 148.35 20.98C148.145 21.1013 147.949 21.288 147.762 21.54C147.706 21.6147 147.645 21.666 147.58 21.694C147.515 21.722 147.426 21.736 147.314 21.736H146.894C146.791 21.736 146.698 21.6987 146.614 21.624C146.539 21.5493 146.507 21.4607 146.516 21.358C146.544 21.078 146.679 20.8027 146.922 20.532C147.174 20.252 147.505 20.0233 147.916 19.846C148.327 19.6687 148.765 19.58 149.232 19.58C150.1 19.58 150.8 19.8227 151.332 20.308C151.873 20.7933 152.144 21.4747 152.144 22.352V26.622C152.144 26.7247 152.107 26.8133 152.032 26.888C151.957 26.9627 151.869 27 151.766 27H151.248C151.145 27 151.057 26.9627 150.982 26.888C150.907 26.8133 150.87 26.7247 150.87 26.622V26.048C150.721 26.384 150.403 26.65 149.918 26.846C149.433 27.042 148.947 27.14 148.462 27.14C147.986 27.14 147.561 27.056 147.188 26.888C146.815 26.7107 146.525 26.4727 146.32 26.174C146.124 25.8753 146.026 25.5393 146.026 25.166C146.026 24.466 146.287 23.92 146.81 23.528C147.333 23.1267 148.028 22.856 148.896 22.716L150.87 22.394ZM150.87 23.514L149.218 23.78C148.611 23.8733 148.14 24.0273 147.804 24.242C147.468 24.4473 147.3 24.7087 147.3 25.026C147.3 25.2593 147.407 25.4693 147.622 25.656C147.837 25.8427 148.163 25.936 148.602 25.936C149.274 25.936 149.82 25.7447 150.24 25.362C150.66 24.9793 150.87 24.48 150.87 23.864V23.514ZM159.269 20.098C159.269 19.9953 159.306 19.9067 159.381 19.832C159.455 19.7573 159.544 19.72 159.647 19.72H160.165C160.267 19.72 160.356 19.7573 160.431 19.832C160.505 19.9067 160.543 19.9953 160.543 20.098V25.796H160.935C161.037 25.796 161.126 25.8333 161.201 25.908C161.275 25.9827 161.313 26.0713 161.313 26.174V28.162C161.313 28.2647 161.275 28.3533 161.201 28.428C161.126 28.5027 161.037 28.54 160.935 28.54H160.417C160.314 28.54 160.225 28.5027 160.151 28.428C160.076 28.3533 160.039 28.2647 160.039 28.162V27H154.565C154.462 27 154.373 26.9627 154.299 26.888C154.224 26.8133 154.187 26.7247 154.187 26.622V20.098C154.187 19.9953 154.224 19.9067 154.299 19.832C154.373 19.7573 154.462 19.72 154.565 19.72H155.083C155.185 19.72 155.274 19.7573 155.349 19.832C155.423 19.9067 155.461 19.9953 155.461 20.098V25.796H159.269V20.098ZM168.564 27C168.461 27 168.373 26.9627 168.298 26.888C168.223 26.8133 168.186 26.7247 168.186 26.622V21.932L164.112 26.846C164.037 26.9487 163.935 27 163.804 27H163.328C163.225 27 163.137 26.9627 163.062 26.888C162.997 26.8133 162.964 26.7247 162.964 26.622V20.098C162.964 19.9953 163.001 19.9067 163.076 19.832C163.151 19.7573 163.239 19.72 163.342 19.72H163.86C163.963 19.72 164.051 19.7573 164.126 19.832C164.201 19.9067 164.238 19.9953 164.238 20.098V24.83L168.312 19.874C168.359 19.818 168.401 19.7807 168.438 19.762C168.485 19.734 168.545 19.72 168.62 19.72H169.082C169.185 19.72 169.273 19.7573 169.348 19.832C169.423 19.9067 169.46 19.9953 169.46 20.098V26.622C169.46 26.7247 169.423 26.8133 169.348 26.888C169.273 26.9627 169.185 27 169.082 27H168.564ZM177.164 27C177.061 27 176.972 26.9627 176.898 26.888C176.823 26.8133 176.786 26.7247 176.786 26.622V21.932L172.712 26.846C172.637 26.9487 172.534 27 172.404 27H171.928C171.825 27 171.736 26.9627 171.662 26.888C171.596 26.8133 171.564 26.7247 171.564 26.622V20.098C171.564 19.9953 171.601 19.9067 171.676 19.832C171.75 19.7573 171.839 19.72 171.942 19.72H172.46C172.562 19.72 172.651 19.7573 172.726 19.832C172.8 19.9067 172.838 19.9953 172.838 20.098V24.83L176.912 19.874C176.958 19.818 177 19.7807 177.038 19.762C177.084 19.734 177.145 19.72 177.22 19.72H177.682C177.784 19.72 177.873 19.7573 177.948 19.832C178.022 19.9067 178.06 19.9953 178.06 20.098V26.622C178.06 26.7247 178.022 26.8133 177.948 26.888C177.873 26.9627 177.784 27 177.682 27H177.164Z" fill="white"/>
</svg>
