<?xml version="1.0"?>
<svg xmlns="http://www.w3.org/2000/svg" viewBox="0 0 96 96" width="512" height="512"><g id="_08-pc" data-name="08-pc"><path d="M92,0H4A4,4,0,0,0,0,4V76a4,4,0,0,0,4,4H36v8H28v8H68V88H60V80H92a4,4,0,0,0,4-4V4A4,4,0,0,0,92,0ZM88,8V60H8V8ZM52,88H44V80h8ZM8,72V68H88v4Z"/><path d="M30.211,47.578l16,8a4.078,4.078,0,0,0,3.578,0l16-8A4,4,0,0,0,68,44V24a4.113,4.113,0,0,0-2.211-3.578l-16-8a4,4,0,0,0-3.578,0l-16,8A4.011,4.011,0,0,0,28,24V44A4,4,0,0,0,30.211,47.578ZM36,30.472l8,4V45.528l-8-4ZM60,41.528l-8,4V34.472l8-4ZM48,20.472,55.056,24,48,27.528,40.944,24Z"/><path d="M76,24h8V16a4,4,0,0,0-4-4H72v8h4Z"/><path d="M20,20h4V12H16a4,4,0,0,0-4,4v8h8Z"/><path d="M84,52V44H76v4H72v8h8A4,4,0,0,0,84,52Z"/><path d="M16,56h8V48H20V44H12v8A4,4,0,0,0,16,56Z"/></g></svg>
