<svg width="321" height="119" viewBox="0 0 321 119" fill="none" xmlns="http://www.w3.org/2000/svg">
<rect width="321" height="119" fill="#9D9D9D"/>
<path d="M190.012 42.5625H178.048C174.974 42.5625 174.86 39.6985 174.857 39.375V37.7812C174.857 35.7763 172.64 33 168.476 33H152.573C147.891 33 146.192 35.8592 146.192 37.7812V39.3654C146.191 39.4961 146.116 42.5625 142.952 42.5625H130.988C129.931 42.5638 128.917 42.984 128.169 43.7309C127.422 44.4778 127.001 45.4905 127 46.5469V75.2344C127 77.4306 128.788 79.2188 130.988 79.2188H140.56C140.771 79.2188 140.974 79.1348 141.124 78.9854C141.273 78.8359 141.357 78.6332 141.357 78.4219C141.357 78.2105 141.273 78.0078 141.124 77.8584C140.974 77.709 140.771 77.625 140.56 77.625H130.988C129.669 77.625 128.595 76.5524 128.595 75.2344V55.3125H141.357C140.301 57.8366 139.759 60.5455 139.762 63.2812C139.762 74.7052 149.065 84 160.5 84C171.935 84 181.238 74.7052 181.238 63.2812C181.238 60.4587 180.665 57.7669 179.638 55.3125H192.405V75.2344C192.405 76.5524 191.331 77.625 190.012 77.625H178.845C178.634 77.625 178.431 77.709 178.281 77.8584C178.132 78.0078 178.048 78.2105 178.048 78.4219C178.048 78.6332 178.132 78.8359 178.281 78.9854C178.431 79.1348 178.634 79.2188 178.845 79.2188H190.012C192.212 79.2188 194 77.4306 194 75.2344V46.5469C194 44.3507 192.212 42.5625 190.012 42.5625ZM160.5 82.4062C149.944 82.4062 141.357 73.8271 141.357 63.2812C141.357 52.7354 149.944 44.1562 160.5 44.1562C171.056 44.1562 179.643 52.7354 179.643 63.2812C179.643 73.8271 171.056 82.4062 160.5 82.4062ZM179.244 53.7188C179.13 53.7195 179.018 53.7451 178.915 53.7937C175.463 47.1334 168.511 42.5625 160.5 42.5625C152.489 42.5625 145.537 47.1334 142.085 53.7937C141.982 53.7451 141.87 53.7195 141.756 53.7188H128.595V46.5469C128.595 45.2288 129.669 44.1562 130.988 44.1562H142.952C146.73 44.1562 147.768 41.0357 147.788 39.375V37.7812C147.788 36.4999 149.062 34.5938 152.573 34.5938H168.476C171.817 34.5938 173.262 36.7039 173.262 37.7812V39.375C173.262 41.0293 174.262 44.1562 178.048 44.1562H190.012C191.331 44.1562 192.405 45.2288 192.405 46.5469V53.7188H179.244Z" fill="white"/>
<path d="M142.155 40.9688C142.367 40.9688 142.57 40.8848 142.719 40.7354C142.869 40.5859 142.953 40.3832 142.953 40.1719V38.5781C142.953 37.2601 141.879 36.1875 140.56 36.1875H134.179C132.86 36.1875 131.786 37.2601 131.786 38.5781V40.1719C131.786 40.3832 131.87 40.5859 132.02 40.7354C132.169 40.8848 132.372 40.9688 132.584 40.9688C132.795 40.9688 132.998 40.8848 133.148 40.7354C133.297 40.5859 133.381 40.3832 133.381 40.1719V38.5781C133.381 38.3668 133.465 38.1641 133.615 38.0146C133.765 37.8652 133.967 37.7812 134.179 37.7812H140.56C140.771 37.7812 140.974 37.8652 141.124 38.0146C141.274 38.1641 141.358 38.3668 141.358 38.5781V40.1719C141.358 40.3832 141.442 40.5859 141.591 40.7354C141.741 40.8848 141.944 40.9688 142.155 40.9688Z" fill="white"/>
<path d="M160.5 48.9375C152.583 48.9375 146.143 55.3731 146.143 63.2812C146.143 71.1894 152.583 77.625 160.5 77.625C168.417 77.625 174.857 71.1894 174.857 63.2812C174.857 55.3731 168.417 48.9375 160.5 48.9375ZM160.5 76.0312C153.463 76.0312 147.738 70.3113 147.738 63.2812C147.738 56.2512 153.463 50.5312 160.5 50.5312C167.536 50.5312 173.262 56.2512 173.262 63.2812C173.262 70.3113 167.536 76.0312 160.5 76.0312Z" fill="white"/>
<rect x="146.12" y="30.8756" width="2" height="60.7159" transform="rotate(-24.3221 146.12 30.8756)" fill="white"/>
</svg>
