<svg width="321" height="119" viewBox="0 0 321 119" fill="none" xmlns="http://www.w3.org/2000/svg">
<rect width="321" height="119" fill="#973347"/>
<path d="M98.0119 43.5625H86.0476C82.9736 43.5625 82.8603 40.6985 82.8571 40.375V38.7812C82.8571 36.7763 80.6398 34 76.4762 34H60.5733C55.8912 34 54.1923 36.8592 54.1923 38.7812V40.3654C54.1907 40.4961 54.1157 43.5625 50.9524 43.5625H38.9881C37.9308 43.5638 36.9171 43.984 36.1695 44.7309C35.4218 45.4778 35.0013 46.4905 35 47.5469V76.2344C35 78.4306 36.7883 80.2188 38.9881 80.2188H48.5595C48.7711 80.2188 48.9739 80.1348 49.1235 79.9854C49.2731 79.8359 49.3571 79.6332 49.3571 79.4219C49.3571 79.2105 49.2731 79.0078 49.1235 78.8584C48.9739 78.709 48.7711 78.625 48.5595 78.625H38.9881C37.6688 78.625 36.5952 77.5524 36.5952 76.2344V56.3125H49.3571C48.3012 58.8366 47.7589 61.5455 47.7619 64.2812C47.7619 75.7053 57.0653 85 68.5 85C79.9347 85 89.2381 75.7053 89.2381 64.2812C89.2381 61.4587 88.6654 58.7669 87.6381 56.3125H100.405V76.2344C100.405 77.5524 99.3312 78.625 98.0119 78.625H86.8452C86.6337 78.625 86.4308 78.709 86.2812 78.8584C86.1317 79.0078 86.0476 79.2105 86.0476 79.4219C86.0476 79.6332 86.1317 79.8359 86.2812 79.9854C86.4308 80.1348 86.6337 80.2188 86.8452 80.2188H98.0119C100.212 80.2188 102 78.4306 102 76.2344V47.5469C102 45.3507 100.212 43.5625 98.0119 43.5625ZM68.5 83.4062C57.9443 83.4062 49.3571 74.8271 49.3571 64.2812C49.3571 53.7354 57.9443 45.1562 68.5 45.1562C79.0557 45.1562 87.6429 53.7354 87.6429 64.2812C87.6429 74.8271 79.0557 83.4062 68.5 83.4062ZM87.244 54.7188C87.1304 54.7195 87.0182 54.7451 86.9154 54.7937C83.4633 48.1334 76.5113 43.5625 68.5 43.5625C60.4887 43.5625 53.5367 48.1334 50.0846 54.7937C49.9818 54.7451 49.8696 54.7195 49.756 54.7188H36.5952V47.5469C36.5952 46.2288 37.6688 45.1562 38.9881 45.1562H50.9524C54.7299 45.1562 55.7684 42.0357 55.7875 40.375V38.7812C55.7875 37.4999 57.0621 35.5938 60.5733 35.5938H76.4762C79.8166 35.5938 81.2619 37.7039 81.2619 38.7812V40.375C81.2619 42.0293 82.2621 45.1562 86.0476 45.1562H98.0119C99.3312 45.1562 100.405 46.2288 100.405 47.5469V54.7188H87.244Z" fill="white"/>
<path d="M50.1552 41.9688C50.3667 41.9688 50.5696 41.8848 50.7192 41.7354C50.8688 41.5859 50.9528 41.3832 50.9528 41.1719V39.5781C50.9528 38.2601 49.8792 37.1875 48.5599 37.1875H42.179C40.8597 37.1875 39.7861 38.2601 39.7861 39.5781V41.1719C39.7861 41.3832 39.8702 41.5859 40.0198 41.7354C40.1693 41.8848 40.3722 41.9688 40.5838 41.9688C40.7953 41.9688 40.9982 41.8848 41.1478 41.7354C41.2973 41.5859 41.3814 41.3832 41.3814 41.1719V39.5781C41.3814 39.3668 41.4654 39.1641 41.615 39.0146C41.7646 38.8652 41.9674 38.7812 42.179 38.7812H48.5599C48.7715 38.7812 48.9744 38.8652 49.1239 39.0146C49.2735 39.1641 49.3576 39.3668 49.3576 39.5781V41.1719C49.3576 41.3832 49.4416 41.5859 49.5912 41.7354C49.7408 41.8848 49.9436 41.9688 50.1552 41.9688Z" fill="white"/>
<path d="M68.4997 49.9375C60.5826 49.9375 54.1426 56.3731 54.1426 64.2812C54.1426 72.1894 60.5826 78.625 68.4997 78.625C76.4169 78.625 82.8569 72.1894 82.8569 64.2812C82.8569 56.3731 76.4169 49.9375 68.4997 49.9375ZM68.4997 77.0312C61.4631 77.0312 55.7378 71.3113 55.7378 64.2812C55.7378 57.2512 61.4631 51.5312 68.4997 51.5312C75.5363 51.5312 81.2616 57.2512 81.2616 64.2812C81.2616 71.3113 75.5363 77.0312 68.4997 77.0312Z" fill="white"/>
<path d="M131.578 67H129.693V60.4277H122.525V67H120.65V52.7812H122.525V58.8945H129.693V52.7812H131.578V67ZM139.01 67.1953C137.577 67.1953 136.412 66.7266 135.514 65.7891C134.615 64.8451 134.166 63.5853 134.166 62.0098V61.6777C134.166 60.6296 134.365 59.6953 134.762 58.875C135.165 58.0482 135.725 57.4036 136.441 56.9414C137.164 56.4727 137.945 56.2383 138.785 56.2383C140.159 56.2383 141.227 56.6908 141.988 57.5957C142.75 58.5007 143.131 59.7962 143.131 61.4824V62.2344H135.973C135.999 63.276 136.301 64.1191 136.881 64.7637C137.467 65.4017 138.209 65.7207 139.107 65.7207C139.745 65.7207 140.286 65.5905 140.729 65.3301C141.171 65.0697 141.559 64.7246 141.891 64.2949L142.994 65.1543C142.109 66.515 140.781 67.1953 139.01 67.1953ZM138.785 57.7227C138.056 57.7227 137.444 57.9896 136.949 58.5234C136.454 59.0508 136.148 59.793 136.031 60.75H141.324V60.6133C141.272 59.6953 141.025 58.9857 140.582 58.4844C140.139 57.9766 139.54 57.7227 138.785 57.7227ZM152.965 57.8984H149.42V67H147.613V57.8984H144.137V56.4336H152.965V57.8984ZM166.52 56.4336H168.326V67H166.52V59.2949L161.646 67H159.84V56.4336H161.646V64.1484L166.52 56.4336ZM177.037 59.3242C177.037 58.8294 176.848 58.4388 176.471 58.1523C176.093 57.8594 175.576 57.7129 174.918 57.7129C174.28 57.7129 173.746 57.8789 173.316 58.2109C172.893 58.543 172.682 58.9336 172.682 59.3828H170.885C170.885 58.4648 171.269 57.7129 172.037 57.127C172.805 56.541 173.766 56.248 174.918 56.248C176.155 56.248 177.118 56.515 177.809 57.0488C178.499 57.5762 178.844 58.3314 178.844 59.3145C178.844 59.7897 178.701 60.2259 178.414 60.623C178.128 61.0202 177.721 61.3359 177.193 61.5703C178.424 61.987 179.039 62.8073 179.039 64.0312C179.039 65.0013 178.665 65.7695 177.916 66.3359C177.167 66.9023 176.168 67.1855 174.918 67.1855C173.701 67.1855 172.695 66.8893 171.9 66.2969C171.113 65.6979 170.719 64.8906 170.719 63.875H172.516C172.516 64.3893 172.743 64.832 173.199 65.2031C173.661 65.5677 174.234 65.75 174.918 65.75C175.608 65.75 176.165 65.5905 176.588 65.2715C177.011 64.9525 177.223 64.5391 177.223 64.0312C177.223 63.4388 177.044 63.0156 176.686 62.7617C176.334 62.5013 175.784 62.3711 175.035 62.3711H173.229V60.8477H175.191C176.422 60.8151 177.037 60.3073 177.037 59.3242ZM180.904 61.6191C180.904 60.584 181.106 59.653 181.51 58.8262C181.92 57.9993 182.486 57.3613 183.209 56.9121C183.938 56.4629 184.768 56.2383 185.699 56.2383C187.138 56.2383 188.3 56.7363 189.186 57.7324C190.077 58.7285 190.523 60.0534 190.523 61.707V61.834C190.523 62.8626 190.325 63.7871 189.928 64.6074C189.537 65.4212 188.974 66.056 188.238 66.5117C187.509 66.9674 186.669 67.1953 185.719 67.1953C184.286 67.1953 183.124 66.6973 182.232 65.7012C181.347 64.7051 180.904 63.3867 180.904 61.7461V61.6191ZM182.721 61.834C182.721 63.0059 182.991 63.9466 183.531 64.6562C184.078 65.3659 184.807 65.7207 185.719 65.7207C186.637 65.7207 187.366 65.3626 187.906 64.6465C188.447 63.9238 188.717 62.9147 188.717 61.6191C188.717 60.4603 188.44 59.5228 187.887 58.8066C187.34 58.084 186.611 57.7227 185.699 57.7227C184.807 57.7227 184.088 58.0775 183.541 58.7871C182.994 59.4967 182.721 60.5124 182.721 61.834ZM197.428 57.0391C198.756 57.0391 199.817 57.485 200.611 58.377C201.412 59.2624 201.812 60.431 201.812 61.8828V62.0488C201.812 63.0449 201.62 63.9368 201.236 64.7246C200.852 65.5059 200.299 66.1146 199.576 66.5508C198.86 66.9805 198.033 67.1953 197.096 67.1953C195.676 67.1953 194.534 66.7233 193.668 65.7793C192.802 64.8288 192.369 63.556 192.369 61.9609V61.082C192.369 58.862 192.779 57.0977 193.6 55.7891C194.426 54.4805 195.644 53.6829 197.252 53.3965C198.163 53.2337 198.779 53.0352 199.098 52.8008C199.417 52.5664 199.576 52.2441 199.576 51.834H201.061C201.061 52.6478 200.875 53.2826 200.504 53.7383C200.139 54.194 199.553 54.5163 198.746 54.7051L197.398 55.0078C196.324 55.2617 195.517 55.6914 194.977 56.2969C194.443 56.8958 194.094 57.6966 193.932 58.6992C194.889 57.5924 196.054 57.0391 197.428 57.0391ZM197.076 58.5234C196.191 58.5234 195.488 58.8229 194.967 59.4219C194.446 60.0143 194.186 60.8379 194.186 61.8926V62.0488C194.186 63.1816 194.446 64.0801 194.967 64.7441C195.494 65.4017 196.204 65.7305 197.096 65.7305C197.994 65.7305 198.704 65.3984 199.225 64.7344C199.745 64.0703 200.006 63.1003 200.006 61.8242C200.006 60.8281 199.742 60.0306 199.215 59.4316C198.694 58.8262 197.981 58.5234 197.076 58.5234ZM212.594 61.834C212.594 63.4421 212.226 64.7376 211.49 65.7207C210.755 66.7038 209.758 67.1953 208.502 67.1953C207.219 67.1953 206.21 66.7884 205.475 65.9746V71.0625H203.668V56.4336H205.318L205.406 57.6055C206.142 56.694 207.164 56.2383 208.473 56.2383C209.742 56.2383 210.745 56.7168 211.48 57.6738C212.223 58.6309 212.594 59.9622 212.594 61.668V61.834ZM210.787 61.6289C210.787 60.4375 210.533 59.4967 210.025 58.8066C209.518 58.1165 208.821 57.7715 207.936 57.7715C206.842 57.7715 206.021 58.2565 205.475 59.2266V64.2754C206.015 65.2389 206.842 65.7207 207.955 65.7207C208.821 65.7207 209.508 65.3789 210.016 64.6953C210.53 64.0052 210.787 62.9831 210.787 61.6289ZM221.422 67C221.318 66.7917 221.233 66.4206 221.168 65.8867C220.328 66.7591 219.326 67.1953 218.16 67.1953C217.118 67.1953 216.262 66.9023 215.592 66.3164C214.928 65.724 214.596 64.9753 214.596 64.0703C214.596 62.9701 215.012 62.1172 215.846 61.5117C216.686 60.8997 217.864 60.5938 219.381 60.5938H221.139V59.7637C221.139 59.1322 220.95 58.6309 220.572 58.2598C220.195 57.8822 219.638 57.6934 218.902 57.6934C218.258 57.6934 217.717 57.8561 217.281 58.1816C216.845 58.5072 216.627 58.901 216.627 59.3633H214.811C214.811 58.8359 214.996 58.3281 215.367 57.8398C215.745 57.3451 216.253 56.9544 216.891 56.668C217.535 56.3815 218.242 56.2383 219.01 56.2383C220.227 56.2383 221.181 56.5443 221.871 57.1562C222.561 57.7617 222.919 58.5983 222.945 59.666V64.5293C222.945 65.4993 223.069 66.2708 223.316 66.8438V67H221.422ZM218.424 65.623C218.99 65.623 219.527 65.4766 220.035 65.1836C220.543 64.8906 220.911 64.5098 221.139 64.041V61.873H219.723C217.509 61.873 216.402 62.5208 216.402 63.8164C216.402 64.3828 216.591 64.8255 216.969 65.1445C217.346 65.4635 217.831 65.623 218.424 65.623ZM234.205 62.4102H232.936V67H231.129V62.4102H229.859L226.9 67H224.615L228.395 61.5312L224.977 56.4336H227.164L229.889 60.8086H231.129V56.4336H232.936V60.8086H234.166L236.91 56.4336H239.098L235.67 61.541L239.449 67H237.164L234.205 62.4102ZM245.279 67.1953C243.847 67.1953 242.682 66.7266 241.783 65.7891C240.885 64.8451 240.436 63.5853 240.436 62.0098V61.6777C240.436 60.6296 240.634 59.6953 241.031 58.875C241.435 58.0482 241.995 57.4036 242.711 56.9414C243.434 56.4727 244.215 56.2383 245.055 56.2383C246.428 56.2383 247.496 56.6908 248.258 57.5957C249.02 58.5007 249.4 59.7962 249.4 61.4824V62.2344H242.242C242.268 63.276 242.571 64.1191 243.15 64.7637C243.736 65.4017 244.479 65.7207 245.377 65.7207C246.015 65.7207 246.555 65.5905 246.998 65.3301C247.441 65.0697 247.828 64.7246 248.16 64.2949L249.264 65.1543C248.378 66.515 247.05 67.1953 245.279 67.1953ZM245.055 57.7227C244.326 57.7227 243.714 57.9896 243.219 58.5234C242.724 59.0508 242.418 59.793 242.301 60.75H247.594V60.6133C247.542 59.6953 247.294 58.9857 246.852 58.4844C246.409 57.9766 245.81 57.7227 245.055 57.7227ZM260.133 67H258.326V62.4883H253.473V67H251.656V56.4336H253.473V61.0137H258.326V56.4336H260.133V67ZM269.879 56.4336H271.686V67H269.879V59.2949L265.006 67H263.199V56.4336H265.006V64.1484L269.879 56.4336ZM282.662 56.4336V67H280.846V62.8887H278.121L275.631 67H273.678L276.334 62.6152C275.657 62.3678 275.136 61.987 274.771 61.4727C274.413 60.9518 274.234 60.3464 274.234 59.6562C274.234 58.6927 274.596 57.918 275.318 57.332C276.041 56.7396 277.008 56.4401 278.219 56.4336H282.662ZM276.051 59.6758C276.051 60.1901 276.227 60.6068 276.578 60.9258C276.93 61.2383 277.395 61.3978 277.975 61.4043H280.846V57.8984H278.248C277.577 57.8984 277.044 58.0645 276.646 58.3965C276.249 58.722 276.051 59.1484 276.051 59.6758Z" fill="white"/>
</svg>
