<svg width="28" height="28" viewBox="0 0 28 28" fill="none" xmlns="http://www.w3.org/2000/svg">
<path d="M20.8953 16.3333C20.3377 19.6385 17.4618 22.1667 14.0003 22.1667C10.141 22.1667 7.00033 19.026 7.00033 15.1667C7.00033 11.3073 10.141 8.16667 14.0003 8.16667H16.5343L14.1007 10.6003L15.7503 12.25L21.0003 7L15.7503 1.75L14.1007 3.39967L16.5343 5.83333H14.0003C11.525 5.83333 9.151 6.81666 7.40066 8.567C5.65032 10.3173 4.66699 12.6913 4.66699 15.1667C4.66699 17.642 5.65032 20.016 7.40066 21.7663C9.151 23.5167 11.525 24.5 14.0003 24.5C18.7603 24.5 22.678 20.9358 23.252 16.3333H20.8953Z" fill="#253F4B"/>
</svg>
